<?xml version="1.0" encoding="UTF-8" standalone="no"?>
<svg
   xmlns:dc="http://purl.org/dc/elements/1.1/"
   xmlns:cc="http://creativecommons.org/ns#"
   xmlns:rdf="http://www.w3.org/1999/02/22-rdf-syntax-ns#"
   xmlns:svg="http://www.w3.org/2000/svg"
   xmlns="http://www.w3.org/2000/svg"
   version="1.1"
   width="600"
   height="600">
  <g id="GradleLogo">
    <g transform="translate(-68.42452,11.887151)" id="g3842">
      <path d="m 466.69048,292.40854 a 95.964493,97.984802 0 1 1 -191.92899,0 95.964493,97.984802 0 1 1 191.92899,0 z"
         transform="matrix(0.99448333,0,0,0.97652566,1.5157697,4.5639684)" id="path3767" style="fill:#006633;fill-opacity:1;stroke:none" />
      <path d="M 542.95699,246.19407 468.71078,117.14708 320.97597,117.39962 276.14559,39.235678 c 29.11438,-10.958592 60.86879,-17.04293 93.82243,-17.04293 132.66409,0 242.63656,97.161212 262.32282,224.201002 -38.09441,0.0795 -89.33385,-0.19968 -89.33385,-0.19968 z"
         id="path3784" style="fill:#006633;fill-opacity:1;stroke:none" />
      <path d="M 632.78226,328.76152 C 613.21602,456.3306 503.00102,554.03295 369.96802,554.03295 c -146.8532,0 -265.90124,-119.05649 -265.90124,-265.9201 0,-84.50566 39.41534,-159.80471 100.86349,-208.513376 l 43.9983,76.471956 -77.5,134.28571 98.57143,172.5 199.64286,-0.35714 77.5,-134.28571 z"
         id="path3774" style="fill:#83b817;fill-opacity:1;stroke:none" />
    </g>
  </g>
</svg>
