<svg width="512px" height="512px" viewBox="0 0 512 512"  xmlns="http://www.w3.org/2000/svg">
 <g>
      <path id="svg_32" d="m448.125,348.75l-6.625,0l0,-86.125c0,-25.57086 -20.80334,-46.375 -46.375,-46.375l-112.625,0l0,-53l6.625,0c10.93127,0 19.875,-8.94376 19.875,-19.875l0,-66.25c0,-10.93125 -8.94373,-19.875 -19.875,-19.875l-66.25,0c-10.93124,0 -19.875,8.94375 -19.875,19.875l0,66.25c0,10.93124 8.94376,19.875 19.875,19.875l6.625,0l0,53l-112.625,0c-25.57085,0 -46.375,20.80414 -46.375,46.375l0,86.125l-6.625,0c-10.93125,0 -19.875,8.94373 -19.875,19.875l0,66.25c0,10.93127 8.94375,19.875 19.875,19.875l66.25,0c10.93124,0 19.875,-8.94373 19.875,-19.875l0,-66.25c0,-10.93127 -8.94376,-19.875 -19.875,-19.875l-6.625,0l0,-79.5l106,0l0,79.5l-6.625,0c-10.93124,0 -19.875,8.94373 -19.875,19.875l0,66.25c0,10.93127 8.94376,19.875 19.875,19.875l66.25,0c10.93127,0 19.875,-8.94373 19.875,-19.875l0,-66.25c0,-10.93127 -8.94373,-19.875 -19.875,-19.875l-6.625,0l0,-79.5l106,0l0,79.5l-6.625,0c-10.93127,0 -19.875,8.94373 -19.875,19.875l0,66.25c0,10.93127 8.94373,19.875 19.875,19.875l66.25,0c10.93127,0 19.875,-8.94373 19.875,-19.875l0,-66.25c0,-10.93127 -8.94373,-19.875 -19.875,-19.875zm-324.625,79.5l-53,0l0,-53l53,0l0,53zm159,0l-53,0l0,-53l53,0l0,53zm-53,-291.5l0,-53l53,0l0,53l-53,0zm212,291.5l-53,0l0,-53l53,0l0,53z"/>
 </g>
</svg>