<?xml version="1.0" encoding="utf-8"?>

<!DOCTYPE svg PUBLIC "-//W3C//DTD SVG 1.1//EN" "http://www.w3.org/Graphics/SVG/1.1/DTD/svg11.dtd">
<svg version="1.1" xmlns="http://www.w3.org/2000/svg" xmlns:xlink="http://www.w3.org/1999/xlink" x="0px" y="0px"
	 width="16px" height="16px" viewBox="0 0 512 512" style="enable-background:new 0 0 512 512;" xml:space="preserve">
    <path id="svg_1" fill="#C9C9C9" d="m255.99997,194.07304q-19.56834,0 -36.0957,9.65193t-26.17932,26.17934t-9.65196,36.09569t9.65196,36.0957t26.17932,26.17932t36.0957,9.65198t36.0957,-9.65198t26.17932,-26.17932t9.65198,-36.0957t-9.65198,-36.09569t-26.17932,-26.17934t-36.0957,-9.65193zm101.54401,71.92696q0,27.63373 -13.61853,50.97034t-36.95514,36.95514t-50.97034,13.6185t-50.97034,-13.6185t-36.95508,-36.95514t-13.61853,-50.97034t13.61853,-50.97031t36.95508,-36.95514t50.97034,-13.61853t50.97034,13.61853t36.95514,36.95514t13.61853,50.97031z"/>
</svg>
