<?xml version="1.0" encoding="utf-8"?>

<!DOCTYPE svg PUBLIC "-//W3C//DTD SVG 1.1//EN" "http://www.w3.org/Graphics/SVG/1.1/DTD/svg11.dtd">
<svg version="1.1" xmlns="http://www.w3.org/2000/svg" xmlns:xlink="http://www.w3.org/1999/xlink" x="0px" y="0px"
	 width="16px" height="16px" viewBox="0 0 512 512" style="enable-background:new 0 0 512 512;" xml:space="preserve">
   <path id="svg_1" fill="#C9C9C9" d="m290.01465,266q0,14.0842 -9.96521,24.04944t-24.04944,9.96524t-24.04942,-9.96524t-9.96521,-24.04944t9.96521,-24.04942t24.04942,-9.96524t24.04944,9.96524t9.96521,24.04942zm-34.01465,-72.28114q-19.66472,0 -36.27347,9.69948t-26.3082,26.30823t-9.69948,36.27344t9.69948,36.27344t26.3082,26.30823t36.27347,9.69949t36.27344,-9.69949t26.3082,-26.30823t9.69952,-36.27344t-9.69952,-36.27344t-26.3082,-26.30823t-36.27344,-9.69948zm102.04398,72.28114q0,27.76974 -13.68558,51.22128t-37.13712,37.13708t-51.22128,13.68561t-51.22127,-13.68561t-37.13712,-37.13708t-13.68559,-51.22128t13.68559,-51.22128t37.13712,-37.13707t51.22127,-13.68562t51.22128,13.68562t37.13712,37.13707t13.68558,51.22128z"/>
</svg>
