<svg width="512px" height="512px" viewBox="0 0 512 512"  xmlns="http://www.w3.org/2000/svg">
 <g>
      <path fill="#C9C9C9" d="m334.12286,257.65201c0,-42.43243 -34.40234,-76.83073 -76.82242,-76.83073c-42.42659,0 -76.82893,34.3983 -76.82893,76.83073c0,42.42578 34.40234,76.81943 76.82893,76.81943c42.42007,0 76.82242,-34.39365 76.82242,-76.81943" id="svg_2"/>
      <path fill="#C9C9C9" d="m257.29828,470.70889c107.24417,0 196.1106,-78.63498 212.12213,-181.39108l-68.96765,0l-62.43399,108.14496l-161.44531,0l-80.72486,-139.81076l62.76424,-108.70554l-35.11286,-60.81738c-49.29272,39.34635 -80.92039,99.90117 -80.92039,167.87427c0,118.57767 96.13889,214.70557 214.71869,214.70557" id="svg_3"/>
      <path fill="#C9C9C9" d="m469.29224,221.959c-16.31357,-102.3977 -104.99969,-180.66792 -211.99396,-180.66792c-26.47371,0 -51.80669,4.81926 -75.22108,13.57908l36.35356,62.96455l119.58801,0l60.10904,104.12205l71.16443,0l0,0.00224z" id="svg_10"/>
 </g>
</svg>